_________________________  Visit us at _________________________
  
http://tinym.eu  ____________________________  http://p2pdl.com

 
http://i.imgur.com/DWI1H.jpg


Release Title: Prometheus (2012)

					
Genre: Adventure | Sci-Fi | Thriller
IMDb Rating: 7.5/10 
http://www.imdb.com/title/tt1446714/


Plot: A team of explorers discover a clue to the origins of mankind on Earth, leading them on a journey to the darkest corners of the universe. There, they must fight a terrifying battle to save the future of the human race. 


Director: Ridley Scott


Stars: Noomi Rapace, Logan Marshall-Green and Michael Fassbender.


Rated: R for sci-fi violence including some intense images, and brief language.


General
Format                         : MPEG-4
File size                      : 403 MiB
Duration                       : 1h 58mn
Overall bit rate               : 475 Kbps
Source                         : PAL.DVDR-PTpOWeR(Thanks)


Video
ID                             : 1
Format                         : AVC
Format/Info                    : Advanced Video Codec
Codec ID                       : avc1
Codec ID/Info                  : Advanced Video Coding
Duration                       : 1h 58mn
Bit rate                       : 408 Kbps
Maximum bit rate               : 5 384 Kbps
Width                          : 720 pixels
Height                         : 288 pixels
Display aspect ratio           : 2.500
Frame rate mode                : Constant
Frame rate                     : 25.000 fps
Stream size                    : 346 MiB (86%)
Writing library                : x264 core 


Audio
ID                             : 2
Format                         : AC-3
Format/Info                    : Audio Coding 3
Codec ID                       : ac-3
Duration                       : 1h 58mn
Bit rate mode                  : Constant
Bit rate                       : 64.0 Kbps
Channel(s)                     : 2 channels
Channel positions              : Front: L R
Sampling rate                  : 44.1 KHz
Stream size                    : 54.3 MiB (13%)
Language                       : English


Screens:

 
http://i.imgbox.com/abhqNm8x.png 
http://i.imgbox.com/acd4AlB6.png 
http://i.imgbox.com/adluSHx7.png 
http://i.imgbox.com/adoR92tp.png 
http://i.imgbox.com/ado89PS6.png 
http://i.imgbox.com/acsLv3Zv.png 
http://i.imgbox.com/abgDfbzz.png 
http://i.imgbox.com/acbX7lK3.png 
http://i.imgbox.com/abxK62Am.png 
http://i.imgbox.com/abiV5xz0.png



------------------------------------------------------------------------


Recommend you to use VLC player. Enjoy!


Greets to: srkfan, Vitamin_X, MgB, Feel_Free, staff members at ExtraTorrent, TPB,KAT, 1337x, PublicHD, Ahashare,
SilverTorrent, TorrentMafia, P2PDL, and all others


Encoder Notes: Looking For Early Access To Anything You Can Provide DVDScr, R5, DVDRips, BluRay, Direct Audio, Early Music
Releases, Seedboxes, Links, Dedicated Servers anything u can provide, Advance / Promo CDs/DVDs. If You Got anything to
offer contact me at "contact@tinym.eu"
